<svg xmlns="http://www.w3.org/2000/svg" width="64" height="64" viewBox="0 0 64 64">
    <g fill="none" fill-rule="evenodd">
        <g>
            <g transform="translate(-32 -267) translate(32 267)">
                <circle cx="32" cy="32" r="32" fill="#FAE101"/>
                <path fill="#3C1E1F" d="M32 41.643c7.732 0 14-5.068 14-11.321S39.732 19 32 19s-14 5.069-14 11.322c0 4.045 2.623 7.594 6.568 9.596-1.203 3.66-1.638 5.563-1.304 5.707.334.145 2.395-1.245 6.184-4.17.827.124 1.68.188 2.552.188z"/>
                <path fill="#FFCD01" d="M28.307 27.428c.077-.252.315-.378.714-.378.4 0 .645.126.736.378h-1.45z"/>
                <path fill="#FAE101" d="M33.34 27.035h.243c.403 0 .73.327.73.73v6.574h-.724c-.3.016-.538-.071-.714-.26-.175-.19-.264-.431-.266-.724v-5.59c0-.403.327-.73.73-.73z"/>
                <rect width="1.704" height="7.304" x="36.991" y="27.035" fill="#FAE101" rx=".73"/>
                <rect width="1.461" height="6.087" x="39.004" y="26.457" fill="#FAE101" rx=".73" transform="rotate(42 39.734 29.5)"/>
                <rect width="1.461" height="5.357" x="39.703" y="29.352" fill="#FAE101" rx=".73" transform="rotate(-38 40.433 32.03)"/>
                <path fill="#FAE101" d="M33.583 32.635h2.434c.404 0 .73.327.73.73v.244c0 .403-.326.73-.73.73h-2.434v-1.704zM27.252 31.417H30.904V32.878H27.252z"/>
                <path fill="#FAE101" d="M23.995 29.857H31.543V31.317999999999998H23.995z" transform="rotate(-70 27.768 30.587)"/>
                <path fill="#FAE101" d="M26.552 30.002H34.1V31.462999999999997H26.552z" transform="rotate(70 30.326 30.733)"/>
                <rect width="5.6" height="1.461" x="21.409" y="27.035" fill="#FAE101" rx=".73"/>
                <path fill="#FAE101" d="M23.357 28.264h1.704v5.345c0 .403-.327.73-.73.73h-.244c-.403 0-.73-.327-.73-.73v-5.345z"/>
            </g>
        </g>
    </g>
</svg>
