<svg xmlns="http://www.w3.org/2000/svg" width="64" height="64" viewBox="0 0 64 64">
    <g fill="none" fill-rule="evenodd">
        <g>
            <g transform="translate(-224 -267) translate(224 267)">
                <circle cx="32" cy="32" r="32" fill="#212529"/>
                <g fill="#FFF">
                    <path d="M15.659 4.546C16.56 3.366 17.244 1.7 16.997 0c-1.474.104-3.197 1.059-4.203 2.303-.917 1.128-1.67 2.806-1.376 4.434 1.612.051 3.276-.927 4.24-2.191zm7.966 15.997c-.645 1.456-.955 2.106-1.786 3.395-1.16 1.8-2.794 4.04-4.82 4.057-1.8.02-2.264-1.194-4.707-1.179C9.87 26.83 9.361 28.018 7.558 28c-2.025-.018-3.574-2.04-4.733-3.84C-.418 19.132-.76 13.23 1.24 10.09c1.422-2.229 3.666-3.533 5.774-3.533 2.145 0 3.495 1.199 5.271 1.199 1.724 0 2.773-1.202 5.254-1.202 1.879 0 3.869 1.042 5.285 2.84-4.643 2.592-3.891 9.343.8 11.15z" transform="translate(20 18)"/>
                </g>
            </g>
        </g>
    </g>
</svg>
