<svg xmlns="http://www.w3.org/2000/svg" viewBox="0 0 89 48">
    <g fill="none" fill-rule="evenodd">
        <g fill="#ff1400">
            <path d="M157.658 82.921c1.613 0 2.34-1.297 2.34-2.802 0-1.453-.727-2.75-2.34-2.75h-8.529v-4.826c0-1.92-1.56-2.803-3.328-2.803-1.769 0-3.329.883-3.329 2.803v4.826h-8.945v-4.826c0-1.92-1.56-2.803-3.329-2.803-1.768 0-3.328.883-3.328 2.803v4.826h-8.53c-1.612 0-2.34 1.297-2.34 2.75 0 1.505.728 2.802 2.34 2.802h39.318zm36.732-15.574c1.717 0 3.329-.882 3.329-2.802v-8.147h4.889c1.664 0 2.392-1.297 2.392-2.906 0-1.557-.728-2.854-2.392-2.854h-4.89v-7.836c0-1.92-1.611-2.802-3.328-2.802-1.716 0-3.328.882-3.328 2.802v21.743c0 1.92 1.612 2.802 3.328 2.802zm-21.323-2.283c8.217 0 12.43-4.826 12.43-11.572 0-6.746-4.213-11.572-12.43-11.572-8.217 0-12.43 4.826-12.43 11.572 0 6.746 4.213 11.572 12.43 11.572zm0-5.449c-4.42 0-6.085-2.75-6.085-6.123s1.664-6.123 6.085-6.123c4.42 0 6.085 2.75 6.085 6.123s-1.664 6.123-6.085 6.123zm-35.386 7.37c8.217 0 12.43-4.825 12.43-11.571 0-6.746-4.213-11.572-12.43-11.572-8.217 0-12.43 4.826-12.43 11.572 0 6.746 4.213 11.572 12.43 11.572zm0-5.448c-4.42 0-6.085-2.75-6.085-6.123s1.664-6.123 6.085-6.123c4.42 0 6.085 2.75 6.085 6.123s-1.664 6.123-6.085 6.123zM196.731 88c1.612 0 2.34-1.194 2.34-2.646 0-1.505-.728-2.699-2.34-2.699h-4.16V74.82h3.64c1.612 0 2.34-1.193 2.34-2.646 0-1.505-.728-2.698-2.34-2.698h-27.773c-1.612 0-2.34 1.193-2.34 2.698 0 1.453.728 2.646 2.34 2.646h3.64v7.836h-4.16c-1.612 0-2.34 1.194-2.34 2.699 0 1.452.728 2.646 2.34 2.646h28.813zm-10.61-5.345h-7.593V74.82h7.593v7.836z" transform="translate(-116 -40)"/>
        </g>
    </g>
</svg>
