<svg xmlns="http://www.w3.org/2000/svg" viewBox="0 0 70 79">
    <g fill="none" fill-rule="evenodd">
        <g fill="#FFF">
            <g transform="translate(-125 -281) translate(125 281)">
                <path d="M25.278 33.056H44.721999999999994V69.02799999999999H25.278z" opacity=".5"/>
                <path d="M11.951 4.202L31.396 4.202 32.771 38.576 13.326 38.576z" opacity=".5" transform="rotate(135 22.361 21.389)"/>
                <path d="M37.229 4.202L56.674 4.202 58.049 38.576 38.604 38.576z" opacity=".5" transform="scale(1 -1) rotate(-45 -3.998 0)"/>
                <path d="M9.722 19.444c5.37 0 9.722-4.352 9.722-9.722 0-2.684-1.088-5.115-2.847-6.874C14.837 1.088 12.407 0 9.722 0 4.352 0 0 4.353 0 9.722c0 2.685 1.088 5.115 2.848 6.875 1.759 1.76 4.19 2.847 6.874 2.847zM35 42.778c2.685 0 5.115-1.088 6.875-2.848 1.759-1.76 2.847-4.19 2.847-6.874 0-2.685-1.088-5.116-2.847-6.875-1.76-1.76-4.19-2.848-6.875-2.848-2.685 0-5.115 1.089-6.875 2.848-1.759 1.76-2.847 4.19-2.847 6.875 0 2.684 1.088 5.115 2.847 6.874 1.76 1.76 4.19 2.848 6.875 2.848z"/>
                <circle cx="35" cy="69.028" r="9.722"/>
                <path d="M60.278 19.444c2.684 0 5.115-1.088 6.874-2.847 1.76-1.76 2.848-4.19 2.848-6.875C70 4.352 65.647 0 60.278 0c-2.685 0-5.115 1.088-6.875 2.848-1.76 1.759-2.847 4.19-2.847 6.874 0 5.37 4.352 9.722 9.722 9.722z"/>
            </g>
        </g>
    </g>
</svg>
